<svg xmlns="http://www.w3.org/2000/svg" width="97.502" height="97.502" viewBox="0 0 97.502 97.502">
  <g id="advice1" transform="translate(0.001 0.001)">
    <path id="Path_14" data-name="Path 14" d="M48.751,97.5A48.751,48.751,0,0,1,14.278,14.278,48.751,48.751,0,0,1,83.223,83.223,48.433,48.433,0,0,1,48.751,97.5Zm0,0" fill="#b9e969"/>
    <path id="Path_15" data-name="Path 15" d="M256,0V97.5a48.751,48.751,0,0,0,34.472-83.224A48.431,48.431,0,0,0,256,0Zm0,0" transform="translate(-207.253)" fill="#73c570"/>
    <path id="Path_16" data-name="Path 16" d="M177.184,104.161l2.51-.922a11.662,11.662,0,0,0,7.113-7.488l3.283-10.574a5.731,5.731,0,0,1,11.177,2.264l-1.367,13.81,9.735-2.111a8.829,8.829,0,0,1,10.7,8.629v19.689a8.828,8.828,0,0,1-3.556,7.081l-.617.46a17.492,17.492,0,0,1-12.642,3.324L174.867,134.7Zm0,0" transform="translate(-141.567 -65.692)" fill="#fff"/>
    <path id="Path_17" data-name="Path 17" d="M281.421,100.017a8.826,8.826,0,0,0-6.1-.878l-9.735,2.111,1.367-13.81A5.731,5.731,0,0,0,256,84.568v52.086l13.2,1.67A17.491,17.491,0,0,0,281.848,135l.618-.46a8.832,8.832,0,0,0,3.556-7.082V107.768A8.831,8.831,0,0,0,281.421,100.017Zm0,0" transform="translate(-207.253 -65.691)" fill="#f0f6fe"/>
    <path id="Path_18" data-name="Path 18" d="M117.439,232.555h7.852l2.318-30.539h-10.17a3.809,3.809,0,0,0-3.809,3.809v22.922a3.809,3.809,0,0,0,3.809,3.809Zm0,0" transform="translate(-91.991 -163.546)" fill="#5877a6"/>
  </g>
</svg>
